<?xml version="1.0" encoding="UTF-8" standalone="no"?>
<!DOCTYPE svg PUBLIC "-//W3C//DTD SVG 1.1//EN"
 "http://www.w3.org/Graphics/SVG/1.1/DTD/svg11.dtd">
<!-- Generated by graphviz version 14.0.0 (20250921.2048)
 -->
<!-- Title: ER Pages: 1 -->
<svg width="491pt" height="351pt"
 viewBox="0.00 0.00 491.00 351.00" xmlns="http://www.w3.org/2000/svg" xmlns:xlink="http://www.w3.org/1999/xlink">
<g id="graph0" class="graph" transform="scale(1 1) rotate(0) translate(14.4 336.4)">
<title>ER</title>
<polygon fill="white" stroke="none" points="-14.4,14.4 -14.4,-336.4 476.65,-336.4 476.65,14.4 -14.4,14.4"/>
<!-- users -->
<g id="node1" class="node">
<title>users</title>
<path fill="#eff6ff" stroke="#3b82f6" stroke-width="1.1" d="M29.25,-134.5C29.25,-134.5 140.75,-134.5 140.75,-134.5 146.75,-134.5 152.75,-140.5 152.75,-146.5 152.75,-146.5 152.75,-190.5 152.75,-190.5 152.75,-196.5 146.75,-202.5 140.75,-202.5 140.75,-202.5 29.25,-202.5 29.25,-202.5 23.25,-202.5 17.25,-196.5 17.25,-190.5 17.25,-190.5 17.25,-146.5 17.25,-146.5 17.25,-140.5 23.25,-134.5 29.25,-134.5"/>
<text xml:space="preserve" text-anchor="middle" x="44.75" y="-164.05" font-family="Helvetica,sans-Serif" font-size="11.00" fill="#0f172a">USERS</text>
<polyline fill="none" stroke="#3b82f6" stroke-width="1.1" points="72.25,-134.5 72.25,-202.5"/>
<text xml:space="preserve" text-anchor="start" x="80.25" y="-188.05" font-family="Helvetica,sans-Serif" font-size="11.00" fill="#0f172a">PK user_id</text>
<text xml:space="preserve" text-anchor="start" x="80.25" y="-176.05" font-family="Helvetica,sans-Serif" font-size="11.00" fill="#0f172a">username</text>
<text xml:space="preserve" text-anchor="start" x="80.25" y="-164.05" font-family="Helvetica,sans-Serif" font-size="11.00" fill="#0f172a">sen_profile</text>
<text xml:space="preserve" text-anchor="start" x="80.25" y="-152.05" font-family="Helvetica,sans-Serif" font-size="11.00" fill="#0f172a">tts_enabled</text>
<text xml:space="preserve" text-anchor="start" x="80.25" y="-140.05" font-family="Helvetica,sans-Serif" font-size="11.00" fill="#0f172a">high_contrast</text>
</g>
<!-- sessions -->
<g id="node3" class="node">
<title>sessions</title>
<path fill="#ecfdf5" stroke="#10b981" stroke-width="1.1" d="M296.38,-134.5C296.38,-134.5 429.62,-134.5 429.62,-134.5 435.62,-134.5 441.62,-140.5 441.62,-146.5 441.62,-146.5 441.62,-190.5 441.62,-190.5 441.62,-196.5 435.62,-202.5 429.62,-202.5 429.62,-202.5 296.38,-202.5 296.38,-202.5 290.38,-202.5 284.38,-196.5 284.38,-190.5 284.38,-190.5 284.38,-146.5 284.38,-146.5 284.38,-140.5 290.38,-134.5 296.38,-134.5"/>
<text xml:space="preserve" text-anchor="middle" x="320.88" y="-164.05" font-family="Helvetica,sans-Serif" font-size="11.00" fill="#0f172a">SESSIONS</text>
<polyline fill="none" stroke="#10b981" stroke-width="1.1" points="357.38,-134.5 357.38,-202.5"/>
<text xml:space="preserve" text-anchor="start" x="365.38" y="-188.05" font-family="Helvetica,sans-Serif" font-size="11.00" fill="#0f172a">PK session_id</text>
<text xml:space="preserve" text-anchor="start" x="365.38" y="-176.05" font-family="Helvetica,sans-Serif" font-size="11.00" fill="#0f172a">FK user_id</text>
<text xml:space="preserve" text-anchor="start" x="365.38" y="-164.05" font-family="Helvetica,sans-Serif" font-size="11.00" fill="#0f172a">subject</text>
<text xml:space="preserve" text-anchor="start" x="365.38" y="-152.05" font-family="Helvetica,sans-Serif" font-size="11.00" fill="#0f172a">started_at</text>
<text xml:space="preserve" text-anchor="start" x="365.38" y="-140.05" font-family="Helvetica,sans-Serif" font-size="11.00" fill="#0f172a">ended_at</text>
</g>
<!-- users&#45;&gt;sessions -->
<g id="edge1" class="edge">
<title>users&#45;&gt;sessions</title>
<path fill="none" stroke="#64748b" stroke-width="1.1" d="M153.16,-168.5C192.66,-168.5 242.77,-168.5 284,-168.5"/>
<text xml:space="preserve" text-anchor="middle" x="216.88" y="-170.25" font-family="Helvetica,sans-Serif" font-size="10.00" fill="#334155">1 : N</text>
</g>
<!-- attempts -->
<g id="node4" class="node">
<title>attempts</title>
<path fill="#fff7ed" stroke="#f97316" stroke-width="1.1" d="M292.62,-0.5C292.62,-0.5 433.38,-0.5 433.38,-0.5 439.38,-0.5 445.38,-6.5 445.38,-12.5 445.38,-12.5 445.38,-68.5 445.38,-68.5 445.38,-74.5 439.38,-80.5 433.38,-80.5 433.38,-80.5 292.62,-80.5 292.62,-80.5 286.62,-80.5 280.62,-74.5 280.62,-68.5 280.62,-68.5 280.62,-12.5 280.62,-12.5 280.62,-6.5 286.62,-0.5 292.62,-0.5"/>
<text xml:space="preserve" text-anchor="middle" x="317.5" y="-36.05" font-family="Helvetica,sans-Serif" font-size="11.00" fill="#0f172a">ATTEMPTS</text>
<polyline fill="none" stroke="#f97316" stroke-width="1.1" points="354.38,-0.5 354.38,-80.5"/>
<text xml:space="preserve" text-anchor="start" x="362.38" y="-66.05" font-family="Helvetica,sans-Serif" font-size="11.00" fill="#0f172a">PK attempt_id</text>
<text xml:space="preserve" text-anchor="start" x="362.38" y="-54.05" font-family="Helvetica,sans-Serif" font-size="11.00" fill="#0f172a">FK user_id</text>
<text xml:space="preserve" text-anchor="start" x="362.38" y="-42.05" font-family="Helvetica,sans-Serif" font-size="11.00" fill="#0f172a">FK session_id</text>
<text xml:space="preserve" text-anchor="start" x="362.38" y="-30.05" font-family="Helvetica,sans-Serif" font-size="11.00" fill="#0f172a">FK question_id</text>
<text xml:space="preserve" text-anchor="start" x="362.38" y="-18.05" font-family="Helvetica,sans-Serif" font-size="11.00" fill="#0f172a">is_correct</text>
<text xml:space="preserve" text-anchor="start" x="362.38" y="-6.05" font-family="Helvetica,sans-Serif" font-size="11.00" fill="#0f172a">time_spent_sec</text>
</g>
<!-- users&#45;&gt;attempts -->
<g id="edge2" class="edge">
<title>users&#45;&gt;attempts</title>
<path fill="none" stroke="#64748b" stroke-width="1.1" d="M153.16,-137.35C191.46,-119.59 239.74,-97.2 280.23,-78.42"/>
<text xml:space="preserve" text-anchor="middle" x="216.88" y="-113.91" font-family="Helvetica,sans-Serif" font-size="10.00" fill="#334155">1 : N</text>
</g>
<!-- recs -->
<g id="node5" class="node">
<title>recs</title>
<path fill="#f3e8ff" stroke="#8b5cf6" stroke-width="1.1" d="M275.75,-253.5C275.75,-253.5 450.25,-253.5 450.25,-253.5 456.25,-253.5 462.25,-259.5 462.25,-265.5 462.25,-265.5 462.25,-309.5 462.25,-309.5 462.25,-315.5 456.25,-321.5 450.25,-321.5 450.25,-321.5 275.75,-321.5 275.75,-321.5 269.75,-321.5 263.75,-315.5 263.75,-309.5 263.75,-309.5 263.75,-265.5 263.75,-265.5 263.75,-259.5 269.75,-253.5 275.75,-253.5"/>
<text xml:space="preserve" text-anchor="middle" x="328.75" y="-283.05" font-family="Helvetica,sans-Serif" font-size="11.00" fill="#0f172a">RECOMMENDATIONS</text>
<polyline fill="none" stroke="#8b5cf6" stroke-width="1.1" points="393.75,-253.5 393.75,-321.5"/>
<text xml:space="preserve" text-anchor="start" x="401.75" y="-307.05" font-family="Helvetica,sans-Serif" font-size="11.00" fill="#0f172a">PK rec_id</text>
<text xml:space="preserve" text-anchor="start" x="401.75" y="-295.05" font-family="Helvetica,sans-Serif" font-size="11.00" fill="#0f172a">FK user_id</text>
<text xml:space="preserve" text-anchor="start" x="401.75" y="-283.05" font-family="Helvetica,sans-Serif" font-size="11.00" fill="#0f172a">subject</text>
<text xml:space="preserve" text-anchor="start" x="401.75" y="-271.05" font-family="Helvetica,sans-Serif" font-size="11.00" fill="#0f172a">rec_type</text>
<text xml:space="preserve" text-anchor="start" x="401.75" y="-259.05" font-family="Helvetica,sans-Serif" font-size="11.00" fill="#0f172a">rec_value</text>
</g>
<!-- users&#45;&gt;recs -->
<g id="edge4" class="edge">
<title>users&#45;&gt;recs</title>
<path fill="none" stroke="#64748b" stroke-width="1.1" d="M153.16,-197.46C192.02,-214.21 241.15,-235.39 282,-253.01"/>
<text xml:space="preserve" text-anchor="middle" x="216.88" y="-229.75" font-family="Helvetica,sans-Serif" font-size="10.00" fill="#334155">1 : N</text>
</g>
<!-- questions -->
<g id="node2" class="node">
<title>questions</title>
<path fill="#fefce8" stroke="#eab308" stroke-width="1.1" d="M12,-2.5C12,-2.5 158,-2.5 158,-2.5 164,-2.5 170,-8.5 170,-14.5 170,-14.5 170,-58.5 170,-58.5 170,-64.5 164,-70.5 158,-70.5 158,-70.5 12,-70.5 12,-70.5 6,-70.5 0,-64.5 0,-58.5 0,-58.5 0,-14.5 0,-14.5 0,-8.5 6,-2.5 12,-2.5"/>
<text xml:space="preserve" text-anchor="middle" x="40.62" y="-32.05" font-family="Helvetica,sans-Serif" font-size="11.00" fill="#0f172a">QUESTIONS</text>
<polyline fill="none" stroke="#eab308" stroke-width="1.1" points="81.25,-2.5 81.25,-70.5"/>
<text xml:space="preserve" text-anchor="start" x="89.25" y="-56.05" font-family="Helvetica,sans-Serif" font-size="11.00" fill="#0f172a">PK question_id</text>
<text xml:space="preserve" text-anchor="start" x="89.25" y="-44.05" font-family="Helvetica,sans-Serif" font-size="11.00" fill="#0f172a">subject</text>
<text xml:space="preserve" text-anchor="start" x="89.25" y="-32.05" font-family="Helvetica,sans-Serif" font-size="11.00" fill="#0f172a">topic</text>
<text xml:space="preserve" text-anchor="start" x="89.25" y="-20.05" font-family="Helvetica,sans-Serif" font-size="11.00" fill="#0f172a">difficulty</text>
<text xml:space="preserve" text-anchor="start" x="89.25" y="-8.05" font-family="Helvetica,sans-Serif" font-size="11.00" fill="#0f172a">correct_option</text>
</g>
<!-- questions&#45;&gt;attempts -->
<g id="edge3" class="edge">
<title>questions&#45;&gt;attempts</title>
<path fill="none" stroke="#64748b" stroke-width="1.1" d="M170.25,-35.51C182.25,-35.4 194.44,-35.31 206,-35.25 215.67,-35.2 218.09,-35.06 227.75,-35.25 244.77,-35.58 263.01,-36.15 280.37,-36.8"/>
<text xml:space="preserve" text-anchor="middle" x="216.88" y="-37" font-family="Helvetica,sans-Serif" font-size="10.00" fill="#334155">1 : N</text>
</g>
</g>
</svg>
