<?xml version="1.0" encoding="UTF-8" standalone="no"?>
<!DOCTYPE svg PUBLIC "-//W3C//DTD SVG 1.1//EN"
 "http://www.w3.org/Graphics/SVG/1.1/DTD/svg11.dtd">
<!-- Generated by graphviz version 14.0.0 (20250921.2048)
 -->
<!-- Title: G Pages: 1 -->
<svg width="559pt" height="226pt"
 viewBox="0.00 0.00 559.00 226.00" xmlns="http://www.w3.org/2000/svg" xmlns:xlink="http://www.w3.org/1999/xlink">
<g id="graph0" class="graph" transform="scale(1 1) rotate(0) translate(14.4 211.42)">
<title>G</title>
<polygon fill="white" stroke="none" points="-14.4,14.4 -14.4,-211.42 544.91,-211.42 544.91,14.4 -14.4,14.4"/>
<!-- user -->
<g id="node1" class="node">
<title>user</title>
<ellipse fill="#dbeafe" stroke="#2563eb" stroke-width="1.2" cx="28.96" cy="-98.51" rx="28.96" ry="18"/>
<text xml:space="preserve" text-anchor="middle" x="28.96" y="-93.48" font-family="Helvetica,sans-Serif" font-size="12.00" fill="#1e3a8a">User</text>
</g>
<!-- ui -->
<g id="node2" class="node">
<title>ui</title>
<path fill="#eff6ff" stroke="#3b82f6" stroke-width="1.2" d="M166.2,-117.02C166.2,-117.02 127.92,-117.02 127.92,-117.02 121.92,-117.02 115.92,-111.02 115.92,-105.02 115.92,-105.02 115.92,-92 115.92,-92 115.92,-86 121.92,-80 127.92,-80 127.92,-80 166.2,-80 166.2,-80 172.2,-80 178.2,-86 178.2,-92 178.2,-92 178.2,-105.02 178.2,-105.02 178.2,-111.02 172.2,-117.02 166.2,-117.02"/>
<text xml:space="preserve" text-anchor="middle" x="147.06" y="-99.86" font-family="Helvetica,sans-Serif" font-size="12.00" fill="#111827">UI Layer</text>
<text xml:space="preserve" text-anchor="middle" x="147.06" y="-87.11" font-family="Helvetica,sans-Serif" font-size="12.00" fill="#111827">(ui/*.py)</text>
</g>
<!-- user&#45;&gt;ui -->
<g id="edge1" class="edge">
<title>user&#45;&gt;ui</title>
<path fill="none" stroke="#6b7280" stroke-width="1.2" d="M58.36,-98.51C72.71,-98.51 90.35,-98.51 106.04,-98.51"/>
<polygon fill="#6b7280" stroke="#6b7280" stroke-width="1.2" points="105.7,-101.31 113.7,-98.51 105.7,-95.71 105.7,-101.31"/>
</g>
<!-- svc -->
<g id="node3" class="node">
<title>svc</title>
<path fill="#ecfdf5" stroke="#10b981" stroke-width="1.2" d="M316.48,-117.02C316.48,-117.02 248.2,-117.02 248.2,-117.02 242.2,-117.02 236.2,-111.02 236.2,-105.02 236.2,-105.02 236.2,-92 236.2,-92 236.2,-86 242.2,-80 248.2,-80 248.2,-80 316.48,-80 316.48,-80 322.48,-80 328.48,-86 328.48,-92 328.48,-92 328.48,-105.02 328.48,-105.02 328.48,-111.02 322.48,-117.02 316.48,-117.02"/>
<text xml:space="preserve" text-anchor="middle" x="282.34" y="-99.86" font-family="Helvetica,sans-Serif" font-size="12.00" fill="#111827">Service Layer</text>
<text xml:space="preserve" text-anchor="middle" x="282.34" y="-87.11" font-family="Helvetica,sans-Serif" font-size="12.00" fill="#111827">(services/*.py)</text>
</g>
<!-- ui&#45;&gt;svc -->
<g id="edge2" class="edge">
<title>ui&#45;&gt;svc</title>
<path fill="none" stroke="#6b7280" stroke-width="1.2" d="M178.64,-98.51C192.77,-98.51 210,-98.51 226.28,-98.51"/>
<polygon fill="#6b7280" stroke="#6b7280" stroke-width="1.2" points="225.91,-101.31 233.91,-98.51 225.91,-95.71 225.91,-101.31"/>
</g>
<!-- model -->
<g id="node4" class="node">
<title>model</title>
<path fill="#fefce8" stroke="#eab308" stroke-width="1.2" d="M494.89,-197.02C494.89,-197.02 422.11,-197.02 422.11,-197.02 416.11,-197.02 410.11,-191.02 410.11,-185.02 410.11,-185.02 410.11,-172 410.11,-172 410.11,-166 416.11,-160 422.11,-160 422.11,-160 494.89,-160 494.89,-160 500.89,-160 506.89,-166 506.89,-172 506.89,-172 506.89,-185.02 506.89,-185.02 506.89,-191.02 500.89,-197.02 494.89,-197.02"/>
<text xml:space="preserve" text-anchor="middle" x="458.5" y="-179.86" font-family="Helvetica,sans-Serif" font-size="12.00" fill="#111827">Adaptive Logic</text>
<text xml:space="preserve" text-anchor="middle" x="458.5" y="-167.11" font-family="Helvetica,sans-Serif" font-size="12.00" fill="#111827">(models/*.py)</text>
</g>
<!-- svc&#45;&gt;model -->
<g id="edge3" class="edge">
<title>svc&#45;&gt;model</title>
<path fill="none" stroke="#6b7280" stroke-width="1.2" d="M324.61,-117.47C349.38,-128.84 381.05,-143.39 407.26,-155.43"/>
<polygon fill="#6b7280" stroke="#6b7280" stroke-width="1.2" points="405.83,-157.86 414.27,-158.65 408.17,-152.77 405.83,-157.86"/>
</g>
<!-- db -->
<g id="node5" class="node">
<title>db</title>
<path fill="#f3e8ff" stroke="#8b5cf6" stroke-width="1.2" d="M512.89,-119.33C512.89,-121.89 488.51,-123.96 458.5,-123.96 428.49,-123.96 404.11,-121.89 404.11,-119.33 404.11,-119.33 404.11,-77.69 404.11,-77.69 404.11,-75.13 428.49,-73.06 458.5,-73.06 488.51,-73.06 512.89,-75.13 512.89,-77.69 512.89,-77.69 512.89,-119.33 512.89,-119.33"/>
<path fill="none" stroke="#8b5cf6" stroke-width="1.2" d="M512.89,-119.33C512.89,-116.78 488.51,-114.71 458.5,-114.71 428.49,-114.71 404.11,-116.78 404.11,-119.33"/>
<text xml:space="preserve" text-anchor="middle" x="458.5" y="-99.86" font-family="Helvetica,sans-Serif" font-size="12.00" fill="#111827">SQLite Database</text>
<text xml:space="preserve" text-anchor="middle" x="458.5" y="-87.11" font-family="Helvetica,sans-Serif" font-size="12.00" fill="#111827">(db/eduai.db)</text>
</g>
<!-- svc&#45;&gt;db -->
<g id="edge4" class="edge">
<title>svc&#45;&gt;db</title>
<path fill="none" stroke="#6b7280" stroke-width="1.2" d="M328.64,-98.51C348.57,-98.51 372.32,-98.51 393.97,-98.51"/>
<polygon fill="#6b7280" stroke="#6b7280" stroke-width="1.2" points="393.94,-101.31 401.94,-98.51 393.94,-95.71 393.94,-101.31"/>
</g>
<!-- tts -->
<g id="node6" class="node">
<title>tts</title>
<path fill="#fff7ed" stroke="#f97316" stroke-width="1.2" d="M518.51,-37.02C518.51,-37.02 398.48,-37.02 398.48,-37.02 392.48,-37.02 386.48,-31.02 386.48,-25.02 386.48,-25.02 386.48,-12 386.48,-12 386.48,-6 392.48,0 398.48,0 398.48,0 518.51,0 518.51,0 524.51,0 530.51,-6 530.51,-12 530.51,-12 530.51,-25.02 530.51,-25.02 530.51,-31.02 524.51,-37.02 518.51,-37.02"/>
<text xml:space="preserve" text-anchor="middle" x="458.5" y="-19.86" font-family="Helvetica,sans-Serif" font-size="12.00" fill="#111827">TTS Service</text>
<text xml:space="preserve" text-anchor="middle" x="458.5" y="-7.11" font-family="Helvetica,sans-Serif" font-size="12.00" fill="#111827">(gTTS + local playback)</text>
</g>
<!-- svc&#45;&gt;tts -->
<g id="edge5" class="edge">
<title>svc&#45;&gt;tts</title>
<path fill="none" stroke="#6b7280" stroke-width="1.2" d="M324.61,-79.55C349.38,-68.18 381.05,-53.63 407.26,-41.59"/>
<polygon fill="#6b7280" stroke="#6b7280" stroke-width="1.2" points="408.17,-44.25 414.27,-38.37 405.83,-39.16 408.17,-44.25"/>
</g>
</g>
</svg>
