<?xml version="1.0" encoding="UTF-8" standalone="no"?>
<!DOCTYPE svg PUBLIC "-//W3C//DTD SVG 1.1//EN"
 "http://www.w3.org/Graphics/SVG/1.1/DTD/svg11.dtd">
<!-- Generated by graphviz version 14.0.0 (20250921.2048)
 -->
<!-- Title: FLOW Pages: 1 -->
<svg width="265pt" height="758pt"
 viewBox="0.00 0.00 265.00 758.00" xmlns="http://www.w3.org/2000/svg" xmlns:xlink="http://www.w3.org/1999/xlink">
<g id="graph0" class="graph" transform="scale(1 1) rotate(0) translate(14.4 743.4)">
<title>FLOW</title>
<polygon fill="white" stroke="none" points="-14.4,14.4 -14.4,-743.4 250.17,-743.4 250.17,14.4 -14.4,14.4"/>
<!-- A -->
<g id="node1" class="node">
<title>A</title>
<path fill="#dbeafe" stroke="#2563eb" stroke-width="1.1" d="M180.53,-729C180.53,-729 111.5,-729 111.5,-729 105.5,-729 99.5,-723 99.5,-717 99.5,-717 99.5,-705 99.5,-705 99.5,-699 105.5,-693 111.5,-693 111.5,-693 180.53,-693 180.53,-693 186.53,-693 192.53,-699 192.53,-705 192.53,-705 192.53,-717 192.53,-717 192.53,-723 186.53,-729 180.53,-729"/>
<text xml:space="preserve" text-anchor="middle" x="146.02" y="-706.55" font-family="Helvetica,sans-Serif" font-size="11.00" fill="#111827">Login / Register</text>
</g>
<!-- B -->
<g id="node2" class="node">
<title>B</title>
<path fill="#eff6ff" stroke="#3b82f6" stroke-width="1.1" d="M169.28,-652C169.28,-652 122.75,-652 122.75,-652 116.75,-652 110.75,-646 110.75,-640 110.75,-640 110.75,-628 110.75,-628 110.75,-622 116.75,-616 122.75,-616 122.75,-616 169.28,-616 169.28,-616 175.28,-616 181.28,-622 181.28,-628 181.28,-628 181.28,-640 181.28,-640 181.28,-646 175.28,-652 169.28,-652"/>
<text xml:space="preserve" text-anchor="middle" x="146.02" y="-629.55" font-family="Helvetica,sans-Serif" font-size="11.00" fill="#111827">Dashboard</text>
</g>
<!-- A&#45;&gt;B -->
<g id="edge1" class="edge">
<title>A&#45;&gt;B</title>
<path fill="none" stroke="#6b7280" stroke-width="1.1" d="M146.02,-692.6C146.02,-683.33 146.02,-671.72 146.02,-661.36"/>
<polygon fill="#6b7280" stroke="#6b7280" stroke-width="1.1" points="148.64,-661.47 146.02,-653.97 143.39,-661.47 148.64,-661.47"/>
</g>
<!-- C -->
<g id="node3" class="node">
<title>C</title>
<path fill="#ecfdf5" stroke="#10b981" stroke-width="1.1" d="M137.53,-575C137.53,-575 50.5,-575 50.5,-575 44.5,-575 38.5,-569 38.5,-563 38.5,-563 38.5,-551 38.5,-551 38.5,-545 44.5,-539 50.5,-539 50.5,-539 137.53,-539 137.53,-539 143.53,-539 149.53,-545 149.53,-551 149.53,-551 149.53,-563 149.53,-563 149.53,-569 143.53,-575 137.53,-575"/>
<text xml:space="preserve" text-anchor="middle" x="94.02" y="-552.55" font-family="Helvetica,sans-Serif" font-size="11.00" fill="#111827">Select Quiz Subject</text>
</g>
<!-- B&#45;&gt;C -->
<g id="edge2" class="edge">
<title>B&#45;&gt;C</title>
<path fill="none" stroke="#6b7280" stroke-width="1.1" d="M133.95,-615.6C127.19,-605.86 118.65,-593.53 111.2,-582.79"/>
<polygon fill="#6b7280" stroke="#6b7280" stroke-width="1.1" points="113.39,-581.34 106.96,-576.67 109.07,-584.33 113.39,-581.34"/>
</g>
<!-- D -->
<g id="node4" class="node">
<title>D</title>
<path fill="#ecfdf5" stroke="#10b981" stroke-width="1.1" d="M122.91,-498C122.91,-498 65.13,-498 65.13,-498 59.13,-498 53.13,-492 53.13,-486 53.13,-486 53.13,-474 53.13,-474 53.13,-468 59.13,-462 65.13,-462 65.13,-462 122.91,-462 122.91,-462 128.91,-462 134.91,-468 134.91,-474 134.91,-474 134.91,-486 134.91,-486 134.91,-492 128.91,-498 122.91,-498"/>
<text xml:space="preserve" text-anchor="middle" x="94.02" y="-475.55" font-family="Helvetica,sans-Serif" font-size="11.00" fill="#111827">Start Session</text>
</g>
<!-- C&#45;&gt;D -->
<g id="edge3" class="edge">
<title>C&#45;&gt;D</title>
<path fill="none" stroke="#6b7280" stroke-width="1.1" d="M94.02,-538.6C94.02,-529.33 94.02,-517.72 94.02,-507.36"/>
<polygon fill="#6b7280" stroke="#6b7280" stroke-width="1.1" points="96.64,-507.47 94.02,-499.97 91.39,-507.47 96.64,-507.47"/>
</g>
<!-- E -->
<g id="node5" class="node">
<title>E</title>
<path fill="#fefce8" stroke="#eab308" stroke-width="1.1" d="M124.53,-421C124.53,-421 61.5,-421 61.5,-421 55.5,-421 49.5,-415 49.5,-409 49.5,-409 49.5,-397 49.5,-397 49.5,-391 55.5,-385 61.5,-385 61.5,-385 124.53,-385 124.53,-385 130.53,-385 136.53,-391 136.53,-397 136.53,-397 136.53,-409 136.53,-409 136.53,-415 130.53,-421 124.53,-421"/>
<text xml:space="preserve" text-anchor="middle" x="93.02" y="-398.55" font-family="Helvetica,sans-Serif" font-size="11.00" fill="#111827">Load Question</text>
</g>
<!-- D&#45;&gt;E -->
<g id="edge4" class="edge">
<title>D&#45;&gt;E</title>
<path fill="none" stroke="#6b7280" stroke-width="1.1" d="M93.78,-461.6C93.66,-452.33 93.5,-440.72 93.37,-430.36"/>
<polygon fill="#6b7280" stroke="#6b7280" stroke-width="1.1" points="95.99,-430.43 93.27,-422.97 90.74,-430.5 95.99,-430.43"/>
</g>
<!-- F -->
<g id="node6" class="node">
<title>F</title>
<path fill="#fefce8" stroke="#eab308" stroke-width="1.1" d="M123.03,-344C123.03,-344 57,-344 57,-344 51,-344 45,-338 45,-332 45,-332 45,-320 45,-320 45,-314 51,-308 57,-308 57,-308 123.03,-308 123.03,-308 129.03,-308 135.03,-314 135.03,-320 135.03,-320 135.03,-332 135.03,-332 135.03,-338 129.03,-344 123.03,-344"/>
<text xml:space="preserve" text-anchor="middle" x="90.02" y="-321.55" font-family="Helvetica,sans-Serif" font-size="11.00" fill="#111827">Submit Answer</text>
</g>
<!-- E&#45;&gt;F -->
<g id="edge5" class="edge">
<title>E&#45;&gt;F</title>
<path fill="none" stroke="#6b7280" stroke-width="1.1" d="M92.32,-384.6C91.95,-375.33 91.48,-363.72 91.07,-353.36"/>
<polygon fill="#6b7280" stroke="#6b7280" stroke-width="1.1" points="93.7,-353.35 90.77,-345.96 88.45,-353.56 93.7,-353.35"/>
</g>
<!-- G -->
<g id="node7" class="node">
<title>G</title>
<path fill="#fff7ed" stroke="#f97316" stroke-width="1.1" d="M123.16,-267C123.16,-267 54.88,-267 54.88,-267 48.88,-267 42.88,-261 42.88,-255 42.88,-255 42.88,-243 42.88,-243 42.88,-237 48.88,-231 54.88,-231 54.88,-231 123.16,-231 123.16,-231 129.16,-231 135.16,-237 135.16,-243 135.16,-243 135.16,-255 135.16,-255 135.16,-261 129.16,-267 123.16,-267"/>
<text xml:space="preserve" text-anchor="middle" x="89.02" y="-244.55" font-family="Helvetica,sans-Serif" font-size="11.00" fill="#111827">Record Attempt</text>
</g>
<!-- F&#45;&gt;G -->
<g id="edge6" class="edge">
<title>F&#45;&gt;G</title>
<path fill="none" stroke="#6b7280" stroke-width="1.1" d="M89.78,-307.6C89.66,-298.33 89.5,-286.72 89.37,-276.36"/>
<polygon fill="#6b7280" stroke="#6b7280" stroke-width="1.1" points="91.99,-276.43 89.27,-268.97 86.74,-276.5 91.99,-276.43"/>
</g>
<!-- H -->
<g id="node8" class="node">
<title>H</title>
<path fill="#fff7ed" stroke="#f97316" stroke-width="1.1" d="M116.41,-190C116.41,-190 49.63,-190 49.63,-190 43.63,-190 37.63,-184 37.63,-178 37.63,-178 37.63,-166 37.63,-166 37.63,-160 43.63,-154 49.63,-154 49.63,-154 116.41,-154 116.41,-154 122.41,-154 128.41,-160 128.41,-166 128.41,-166 128.41,-178 128.41,-178 128.41,-184 122.41,-190 116.41,-190"/>
<text xml:space="preserve" text-anchor="middle" x="83.02" y="-167.55" font-family="Helvetica,sans-Serif" font-size="11.00" fill="#111827">Adjust Difficulty</text>
</g>
<!-- G&#45;&gt;H -->
<g id="edge7" class="edge">
<title>G&#45;&gt;H</title>
<path fill="none" stroke="#6b7280" stroke-width="1.1" d="M87.62,-230.6C86.88,-221.33 85.95,-209.72 85.12,-199.36"/>
<polygon fill="#6b7280" stroke="#6b7280" stroke-width="1.1" points="87.75,-199.23 84.53,-191.96 82.51,-199.65 87.75,-199.23"/>
</g>
<!-- I -->
<g id="node9" class="node">
<title>I</title>
<path fill="#f3e8ff" stroke="#8b5cf6" stroke-width="1.1" d="M138.03,-113C138.03,-113 12,-113 12,-113 6,-113 0,-107 0,-101 0,-101 0,-89 0,-89 0,-83 6,-77 12,-77 12,-77 138.03,-77 138.03,-77 144.03,-77 150.03,-83 150.03,-89 150.03,-89 150.03,-101 150.03,-101 150.03,-107 144.03,-113 138.03,-113"/>
<text xml:space="preserve" text-anchor="middle" x="75.02" y="-90.55" font-family="Helvetica,sans-Serif" font-size="11.00" fill="#111827">Generate Recommendation</text>
</g>
<!-- H&#45;&gt;I -->
<g id="edge8" class="edge">
<title>H&#45;&gt;I</title>
<path fill="none" stroke="#6b7280" stroke-width="1.1" d="M81.16,-153.6C80.17,-144.33 78.93,-132.72 77.83,-122.36"/>
<polygon fill="#6b7280" stroke="#6b7280" stroke-width="1.1" points="80.44,-122.14 77.04,-114.96 75.22,-122.69 80.44,-122.14"/>
</g>
<!-- J -->
<g id="node10" class="node">
<title>J</title>
<path fill="#f8fafc" stroke="#64748b" stroke-width="1.1" d="M206.03,-36C206.03,-36 68,-36 68,-36 62,-36 56,-30 56,-24 56,-24 56,-12 56,-12 56,-6 62,0 68,0 68,0 206.03,0 206.03,0 212.03,0 218.03,-6 218.03,-12 218.03,-12 218.03,-24 218.03,-24 218.03,-30 212.03,-36 206.03,-36"/>
<text xml:space="preserve" text-anchor="middle" x="137.02" y="-13.55" font-family="Helvetica,sans-Serif" font-size="11.00" fill="#111827">Next Question or End Session</text>
</g>
<!-- I&#45;&gt;J -->
<g id="edge9" class="edge">
<title>I&#45;&gt;J</title>
<path fill="none" stroke="#6b7280" stroke-width="1.1" d="M89.39,-76.6C97.61,-66.67 108.04,-54.05 117.04,-43.16"/>
<polygon fill="#6b7280" stroke="#6b7280" stroke-width="1.1" points="118.9,-45.04 121.65,-37.58 114.85,-41.69 118.9,-45.04"/>
</g>
<!-- J&#45;&gt;B -->
<g id="edge10" class="edge">
<title>J&#45;&gt;B</title>
<path fill="none" stroke="#94a3b8" stroke-width="1.1" d="M163.31,-36.39C180.21,-49.85 199.02,-70.18 199.02,-94 159.02,0 159.02,0 199.02,-558 199.02,-577.73 186.63,-595.91 173.83,-609.43"/>
<polygon fill="#94a3b8" stroke="#94a3b8" stroke-width="1.1" points="172.21,-607.35 168.75,-614.5 175.91,-611.06 172.21,-607.35"/>
<text xml:space="preserve" text-anchor="middle" x="217.39" y="-320.95" font-family="Times,serif" font-size="14.00" fill="#64748b">Return</text>
</g>
</g>
</svg>
